<svg xmlns="http://www.w3.org/2000/svg" viewBox="0 0 1373.069 330.191"><title>Asset 4</title><g id="Layer_2" data-name="Layer 2"><g id="Layer_1-2" data-name="Layer 1"><path d="M0,0V72.177H98.524V329.891h89.447V72.177H286.5V0ZM160.548,157.508a14.616,14.616,0,0,1-14.616,14.616h-4.066a14.616,14.616,0,0,1-14.616-14.616v-66.7a14.616,14.616,0,0,1,14.616-14.616h4.066a14.616,14.616,0,0,1,14.616,14.616Z" style="fill:#fff"/><path d="M160.069,255h1138a75,75,0,0,1,75,75v0a0,0,0,0,1,0,0h-1213a0,0,0,0,1,0,0V255A0,0,0,0,1,160.069,255Z" style="fill:#2f3191"/><path d="M277.951,329.313q-17.286,0-30.176-7.911a53.151,53.151,0,0,1-19.922-21.826q-7.031-13.914-7.031-31.787v-104.3h58.887v91.992q0,12.162,6.152,19.117t17.285,6.958a24.115,24.115,0,0,0,12.6-3.15,21.287,21.287,0,0,0,8.2-9.009,30.8,30.8,0,0,0,2.93-13.916V163.492h58.886v163.77H330.539l-1.172-41.895h1.758a73.658,73.658,0,0,1-18.091,31.275Q300.509,329.314,277.951,329.313Z" style="fill:#fff"/><path d="M474.533,235.27v91.992H415.646V163.492h55.225l1.172,41.9h-1.758a73.668,73.668,0,0,1,18.091-31.275q12.524-12.669,35.083-12.671,17.43,0,30.249,7.911a53.332,53.332,0,0,1,19.848,21.826q7.032,13.918,7.032,31.787v104.3H521.7V235.27q0-12.158-6.152-19.117T498.263,209.2a24.221,24.221,0,0,0-12.524,3.15,21.24,21.24,0,0,0-8.276,8.935A30.679,30.679,0,0,0,474.533,235.27Z" style="fill:#fff"/><path d="M669.357,235.27v91.992H610.47V163.492H665.7l1.172,41.9h-1.758A73.668,73.668,0,0,1,683.2,174.112q12.525-12.669,35.083-12.671,17.43,0,30.249,7.911a53.341,53.341,0,0,1,19.849,21.826q7.03,13.918,7.031,31.787v104.3H716.525V235.27q0-12.158-6.152-19.117T693.088,209.2a24.227,24.227,0,0,0-12.525,3.15,21.24,21.24,0,0,0-8.276,8.935A30.666,30.666,0,0,0,669.357,235.27Z" style="fill:#fff"/><path d="M883.81,330.191q-26.223,0-45.19-10.034a68.665,68.665,0,0,1-29.077-28.93q-10.109-18.9-10.108-45.411,0-25.34,10.181-44.311A72.84,72.84,0,0,1,838.4,171.988q18.6-10.547,43.945-10.547a92.882,92.882,0,0,1,33.619,5.787,71.478,71.478,0,0,1,25.708,16.7,73.5,73.5,0,0,1,16.406,26.44q5.712,15.53,5.713,35.156V259H817.6V226.773H936.252l-27.539,6.739q0-9.96-2.93-16.773a22.29,22.29,0,0,0-8.643-10.4q-5.712-3.588-14.209-3.589t-14.209,3.589a22.276,22.276,0,0,0-8.642,10.4q-2.933,6.811-2.93,16.773v23.437q0,10.844,3.443,17.945a23.016,23.016,0,0,0,9.741,10.546,30.048,30.048,0,0,0,14.648,3.443A33.438,33.438,0,0,0,895.9,287.2a24.221,24.221,0,0,0,8.423-4.834,19.7,19.7,0,0,0,5.274-7.69l51.855,7.617a58.824,58.824,0,0,1-14.5,25.415,69.116,69.116,0,0,1-26.294,16.626Q904.754,330.188,883.81,330.191Z" style="fill:#fff"/><path d="M1046.115,109V327.262H987.228V109Z" style="fill:#fff"/><path d="M1154.513,330.191q-26.223,0-45.19-10.034a68.671,68.671,0,0,1-29.077-28.93q-10.107-18.9-10.108-45.411,0-25.34,10.181-44.311a72.84,72.84,0,0,1,28.784-29.517q18.6-10.547,43.946-10.547a92.88,92.88,0,0,1,33.618,5.787,71.47,71.47,0,0,1,25.708,16.7,73.5,73.5,0,0,1,16.406,26.44q5.713,15.53,5.713,35.156V259H1088.3V226.773h118.653l-27.539,6.739q0-9.96-2.93-16.773a22.29,22.29,0,0,0-8.643-10.4q-5.712-3.588-14.208-3.589t-14.209,3.589a22.272,22.272,0,0,0-8.643,10.4q-2.932,6.811-2.93,16.773v23.437q0,10.844,3.443,17.945a23.022,23.022,0,0,0,9.741,10.546,30.048,30.048,0,0,0,14.648,3.443A33.438,33.438,0,0,0,1166.6,287.2a24.221,24.221,0,0,0,8.423-4.834,19.7,19.7,0,0,0,5.274-7.69l51.855,7.617a58.824,58.824,0,0,1-14.5,25.415,69.116,69.116,0,0,1-26.294,16.626Q1175.459,330.188,1154.513,330.191Z" style="fill:#fff"/><path d="M1257.931,327.262V163.492h57.129V194.84h1.758q4.4-17.43,14.136-25.415a34.853,34.853,0,0,1,22.778-7.984,50.389,50.389,0,0,1,7.617.586,44.839,44.839,0,0,1,7.325,1.758v50.1a45.167,45.167,0,0,0-10.767-2.271,108.582,108.582,0,0,0-10.913-.659,31.057,31.057,0,0,0-15.527,3.882,27.676,27.676,0,0,0-10.767,10.84,32.981,32.981,0,0,0-3.882,16.333v85.254Z" style="fill:#fff"/><polygon points="127.25 157.853 98.709 329.891 188.296 329.891 160.119 157.853 127.25 157.853" style="fill:#2f3191"/></g></g></svg>