<svg xmlns="http://www.w3.org/2000/svg" viewBox="0 0 573.693 660.629"><title>Asset 2</title><g id="Layer_2" data-name="Layer 2"><g id="Layer_1-2" data-name="Layer 1"><path d="M.027,0,0,144.525l197.281.037-.1,516.033,179.1.034.1-516.034,197.281.037L573.693.108ZM321.441,315.447a29.266,29.266,0,0,1-29.271,29.261l-8.141,0a29.266,29.266,0,0,1-29.261-29.271l.025-133.551a29.266,29.266,0,0,1,29.272-29.261l8.141,0a29.265,29.265,0,0,1,29.26,29.272Z" style="fill:#fff"/><polygon points="254.768 316.127 197.555 660.595 376.938 660.629 320.583 316.139 254.768 316.127" style="fill:#2f3191"/></g></g></svg>