<svg xmlns="http://www.w3.org/2000/svg" viewBox="0 0 1105.458 1105.458"><title>Asset 1</title><g id="Layer_2" data-name="Layer 2"><g id="Layer_1-2" data-name="Layer 1"><path d="M555.681,568.679A3.484,3.484,0,1,0,552.2,565.2a3.539,3.539,0,0,0,3.484,3.484Z" style="fill:#000433"/><circle cx="552.729" cy="552.729" r="552.729" style="fill:#000433"/><path d="M268.232,247.961l-.027,144.525,197.281.037-.1,516.033,179.1.034.1-516.034,197.281.037.027-144.525ZM589.646,563.408a29.266,29.266,0,0,1-29.271,29.261l-8.142,0a29.266,29.266,0,0,1-29.26-29.272L523,429.845a29.266,29.266,0,0,1,29.271-29.261l8.142,0a29.265,29.265,0,0,1,29.26,29.271Z" style="fill:#fff"/><polygon points="522.973 564.087 465.759 908.556 645.143 908.59 588.788 564.1 522.973 564.087" style="fill:#2f3191"/></g></g></svg>